# xmcd CD database file
#
# Track frame offsets:
#	150
#	7079
#	24823
#	48851
#	81770
#	111487
#	114773
#	136186
#	166440
#	204300
#	235163
#	259358
#	264349
#
# Disc length: 3824 seconds
#
# Revision: 0
# Processed by: cddbd v1.4PL0 Copyright (c) Steve Scherf et al.
# Submitted via: CDex 1.50
#
DISCID=a10eee0d
DTITLE=Cuarteto Sonanado - 7 Steps to 850
DYEAR=2001
DGENRE=Salsa
TTITLE0=850 Introlude
TTITLE1=Seven Steps to Heaven
TTITLE2=lyesa por Ochun
TTITLE3=El Manisero
TTITLE4=Blackbird
TTITLE5=850 Interlude
TTITLE6=Giant Steps
TTITLE7=My Favorite Things
TTITLE8=Beautiful Love
TTITLE9=Se Fue
TTITLE10=Sanba Yanta
TTITLE11=850 Outrolude
TTITLE12=lyesa Dance Remix
EXTD=YEAR: 2001
EXTT0=
EXTT1=
EXTT2=
EXTT3=
EXTT4=
EXTT5=
EXTT6=
EXTT7=
EXTT8=
EXTT9=
EXTT10=
EXTT11=
EXTT12=
PLAYORDER=
